<svg width="15" height="15" viewBox="0 0 15 15" fill="none" xmlns="http://www.w3.org/2000/svg">
<path fill-rule="evenodd" clip-rule="evenodd" d="M3.73419 3.61461C3.86005 2.90331 4.41259 2.3913 5.05436 2.3913H9.94755C10.5893 2.3913 11.1419 2.90331 11.2677 3.61461L11.7293 6.2233C11.8959 7.16494 11.2587 8.04348 10.4091 8.04348H4.59276C3.74318 8.04348 3.10598 7.16494 3.27259 6.2233L3.73419 3.61461ZM5.05436 3.69565C4.96268 3.69565 4.88374 3.7688 4.86576 3.87041L4.40417 6.4791C4.38037 6.61363 4.47139 6.73913 4.59276 6.73913H10.4091C10.5305 6.73913 10.6215 6.61363 10.5977 6.4791L10.1361 3.87041C10.1182 3.7688 10.0392 3.69565 9.94755 3.69565H5.05436Z" fill="#2A5586"/>
<path d="M5.19297 8.91304C4.87431 8.91304 4.61598 9.20503 4.61598 9.56522C4.61598 9.9254 4.87431 10.2174 5.19297 10.2174H9.80891C10.1276 10.2174 10.3859 9.9254 10.3859 9.56522C10.3859 9.20503 10.1276 8.91304 9.80891 8.91304H5.19297Z" fill="#2A5586"/>
<path fill-rule="evenodd" clip-rule="evenodd" d="M0.577036 10.4348V8.69109C0.577036 8.52544 0.597973 8.36069 0.639179 8.20182L0.273336 7.9458C0.00239871 7.7562 -0.0812526 7.35423 0.0864957 7.04799C0.254244 6.74175 0.609869 6.6472 0.880807 6.83681L0.991571 6.91432L2.21415 2.4498C2.61304 0.993154 3.80479 0 5.15384 0H9.84804C11.1971 0 12.3888 0.993153 12.7877 2.4498L14.01 6.91322L14.1192 6.83681C14.3901 6.6472 14.7458 6.74175 14.9135 7.04799C15.0813 7.35423 14.9976 7.7562 14.7267 7.9458L14.3624 8.20071C14.4038 8.35993 14.4248 8.52506 14.4248 8.69109V10.4348C14.4248 11.0214 14.1679 11.5401 13.7743 11.8551C13.8211 11.9494 13.8479 12.0581 13.8479 12.1739V13.4783C13.8479 14.3187 13.2451 15 12.5015 15H11.7322C10.9887 15 10.3859 14.3187 10.3859 13.4783V12.1739H4.61598V13.4783C4.61598 14.3187 4.01321 15 3.26967 15H2.50034C1.75679 15 1.15403 14.3187 1.15403 13.4783V12.1739C1.15403 12.0581 1.18073 11.9494 1.22755 11.8551C0.833959 11.5401 0.577036 11.0214 0.577036 10.4348ZM1.73102 8.69109V10.4348C1.73102 10.6749 1.90324 10.8696 2.11568 10.8696H12.8862C13.0986 10.8696 13.2709 10.6749 13.2709 10.4348V8.69109C13.2709 8.6475 13.2651 8.60417 13.2537 8.56253L11.6853 2.83547C11.436 1.92507 10.6912 1.30435 9.84804 1.30435H5.15384C4.31069 1.30435 3.56584 1.92507 3.31653 2.83547L1.74822 8.56253C1.73682 8.60417 1.73102 8.64751 1.73102 8.69109ZM11.5399 12.1739H12.6939V13.4783C12.6939 13.5983 12.6078 13.6957 12.5015 13.6957H11.7322C11.626 13.6957 11.5399 13.5983 11.5399 13.4783V12.1739ZM2.30801 12.1739V13.4783C2.30801 13.5983 2.39412 13.6957 2.50034 13.6957H3.26967C3.37589 13.6957 3.462 13.5983 3.462 13.4783V12.1739H2.30801Z" fill="#2A5586"/>
</svg>