<svg width="30" height="38" viewBox="0 0 30 38" fill="none" xmlns="http://www.w3.org/2000/svg">
<path fill-rule="evenodd" clip-rule="evenodd" d="M8.29916 7.13581C8.4496 6.98537 8.68313 6.95662 8.86557 7.06608L11.7634 8.8048C11.9031 8.88859 11.9885 9.03952 11.9885 9.20238V10.0992L14.8173 12.9279C15.1035 12.527 15.1883 11.9316 15.1331 11.2782C15.0743 10.5935 15.1956 9.90533 15.4849 9.28198C15.7742 8.65861 16.2215 8.12172 16.7824 7.7246C17.3433 7.32748 17.9982 7.08393 18.6823 7.01812C19.3664 6.95232 20.0558 7.06654 20.6821 7.34945C20.8209 7.41213 20.92 7.53895 20.9474 7.68874C20.9747 7.83852 20.9268 7.99219 20.8191 8.09986L18.4831 10.4359C18.5759 10.6821 18.7204 10.9068 18.9078 11.0942C19.0952 11.2816 19.3198 11.426 19.566 11.5189L21.9021 9.18214C22.0097 9.07445 22.1634 9.02648 22.3132 9.05382C22.463 9.08115 22.5898 9.1803 22.6525 9.31907C22.9354 9.94538 23.0497 10.6348 22.9838 11.3189C22.918 12.0029 22.6745 12.6579 22.2774 13.2188C21.8802 13.7797 21.3434 14.227 20.72 14.5163C20.0968 14.8055 19.4089 14.9268 18.7244 14.8682C18.6194 14.8595 18.5146 14.8543 18.4109 14.8531L22.2904 18.7326C22.749 19.2064 23.003 19.8415 22.9977 20.5009C22.9923 21.1603 22.728 21.7912 22.2617 22.2575C21.7954 22.7238 21.1645 22.9881 20.5051 22.9934C19.8457 22.9988 19.2106 22.7448 18.7368 22.2861L18.7314 22.2809L14.5874 18.1367L11.3154 22.1103C11.1 22.3727 10.8319 22.5874 10.5287 22.7401C10.2253 22.8928 9.8934 22.9804 9.5542 22.9971C9.21501 23.0138 8.87607 22.9592 8.55921 22.837C8.24236 22.7148 7.9546 22.5276 7.71446 22.2875C7.47432 22.0474 7.28713 21.7596 7.16492 21.4427C7.04271 21.1259 6.9882 20.787 7.00489 20.4478C7.02159 20.1086 7.10912 19.7766 7.26185 19.4733C7.41454 19.1701 7.62902 18.9021 7.89148 18.6868L12.7802 14.6611L10.1034 11.9843H9.20659C9.04372 11.9843 8.8928 11.8989 8.80901 11.7592L7.07029 8.86136C6.96083 8.67892 6.98957 8.4454 7.14002 8.29496L8.29916 7.13581ZM13.7877 15.0313C13.78 15.0386 13.7721 15.0456 13.7639 15.0523L8.48051 19.403C8.31803 19.5363 8.18461 19.7026 8.0901 19.8903C7.99558 20.078 7.94142 20.2834 7.93109 20.4933C7.92076 20.7032 7.95449 20.913 8.03011 21.109C8.10574 21.3051 8.22158 21.4832 8.37017 21.6318C8.51877 21.7804 8.69684 21.8962 8.89291 21.9718C9.08898 22.0475 9.29872 22.0812 9.50861 22.0709C9.71851 22.0605 9.92392 22.0064 10.1116 21.9119C10.2993 21.8173 10.4651 21.6846 10.5984 21.5221L16.1251 14.8115C16.4328 14.4387 16.8333 14.2105 17.25 14.0804C17.2714 14.0722 17.2933 14.0657 17.3154 14.0608C17.8055 13.9205 18.3293 13.905 18.8016 13.9441L18.803 13.9442C19.3266 13.9892 19.8529 13.8964 20.3296 13.6752C20.8063 13.4539 21.2169 13.1119 21.5205 12.683C21.8242 12.2541 22.0105 11.7532 22.0608 11.2301C22.0884 10.9434 22.0746 10.6554 22.0209 10.3749L20.0263 12.3701C19.9132 12.4832 19.7498 12.5301 19.5939 12.494C19.0858 12.3765 18.6209 12.1187 18.2521 11.7499C17.8833 11.3811 17.6254 10.9162 17.5079 10.408C17.4719 10.2522 17.5187 10.0888 17.6318 9.97571L19.6264 7.9811C19.3459 7.92737 19.0579 7.91359 18.7711 7.94118C18.248 7.9915 17.7471 8.17774 17.3182 8.48142C16.8893 8.7851 16.5472 9.19567 16.326 9.67236C16.1048 10.1491 16.012 10.6753 16.057 11.1989C16.1303 12.066 16.0203 13.1925 15.1923 13.8753L15.1912 13.8762L15.1144 13.9401C15.1055 13.9476 15.0963 13.9547 15.0869 13.9614L13.7877 15.0313ZM14.1279 13.5499L11.197 10.6191C11.1101 10.5321 11.0612 10.4142 11.0612 10.2912V9.4649L8.69889 8.0475L8.05171 8.69468L9.46911 11.057H10.2954C10.4184 11.057 10.5363 11.1059 10.6233 11.1928L13.4986 14.0681L14.1279 13.5499ZM17.2995 15.0531C17.1168 15.1389 16.9625 15.2537 16.8407 15.4012L15.1797 17.4176L19.3844 21.6223C19.683 21.9101 20.0827 22.0695 20.4976 22.0662C20.9137 22.0628 21.3118 21.896 21.606 21.6018C21.9002 21.3075 22.067 20.9095 22.0704 20.4934C22.0738 20.0785 21.9144 19.6788 21.6265 19.3801L17.2995 15.0531Z" fill="#009CEB"/>
<path d="M14.5304 1.00154C18.1586 0.942597 21.7631 2.57178 25.1727 5.73598C30.9049 11.0556 29.6402 19.6806 25.0729 25.4767L16.4649 36.4005C15.8351 37.1998 14.5946 37.1998 13.9648 36.4005L4.91386 24.9146C0.586787 19.4233 -0.877929 11.3176 4.30835 6.00941C7.43696 2.80723 10.8991 1.06054 14.5304 1.00154Z" fill="#F1B900" stroke="#F1B900" stroke-width="2"/>
<path d="M22.1889 23.0655L21.0647 24.1897C20.9164 24.3371 20.7157 24.4199 20.5066 24.4199C20.2974 24.4199 20.0968 24.3371 19.9484 24.1897L10.5434 14.8005C10.286 14.8752 10.0198 14.9151 9.75177 14.9193C9.24771 14.9189 8.75103 14.7982 8.30301 14.5673C7.85499 14.3363 7.46857 14.0017 7.17589 13.5914C6.88321 13.181 6.69272 12.7067 6.62026 12.2079C6.54779 11.709 6.59545 11.2001 6.75927 10.7234L8.7701 12.7343L9.18968 12.3147L10.3139 11.1905L10.7334 10.7709L8.7226 8.7601C9.19929 8.59629 9.7082 8.54863 10.207 8.62109C10.7058 8.69356 11.1801 8.88405 11.5905 9.17673C12.0009 9.46941 12.3355 9.85582 12.5664 10.3038C12.7974 10.7519 12.9181 11.2486 12.9184 11.7526C12.9143 12.0206 12.8744 12.2869 12.7997 12.5443L22.1889 21.9493C22.3363 22.0976 22.4191 22.2982 22.4191 22.5074C22.4191 22.7165 22.3363 22.9172 22.1889 23.0655ZM6.81468 21.9493C6.66723 22.0976 6.58447 22.2982 6.58447 22.5074C6.58447 22.7165 6.66723 22.9172 6.81468 23.0655L7.93885 24.1897C8.08718 24.3371 8.28783 24.4199 8.49698 24.4199C8.70612 24.4199 8.90677 24.3371 9.0551 24.1897L13.3855 19.8672L11.1451 17.6268M20.8351 8.58594L17.6684 10.1693V11.7526L15.9505 13.4705L17.5339 15.0539L19.2518 13.3359H20.8351L22.4184 10.1693L20.8351 8.58594Z" fill="black"/>
</svg>