<svg width="20" height="22" viewBox="0 0 20 22" fill="none" xmlns="http://www.w3.org/2000/svg">
<path d="M9.55469 1.09375C9.83796 0.968271 10.162 0.968364 10.4453 1.09375L10.583 1.16699L18.3945 6.04883C19.0839 6.47965 19.0839 7.4842 18.3945 7.91504L10.583 12.7969C10.2263 13.0198 9.77366 13.0198 9.41699 12.7969L1.60547 7.91504C0.916375 7.48415 0.91629 6.47965 1.60547 6.04883L9.41699 1.16699L9.55469 1.09375Z" fill="white" stroke="white" stroke-width="2"/>
<path d="M1.00024 11.5L9.74013 16.824C9.89988 16.9213 10.1006 16.9213 10.2604 16.824L19.0002 11.5" stroke="white" stroke-width="2" stroke-linecap="round" stroke-linejoin="round"/>
<path d="M1.00024 15.5L9.74013 20.824C9.89988 20.9213 10.1006 20.9213 10.2604 20.824L19.0002 15.5" stroke="white" stroke-width="2" stroke-linecap="round" stroke-linejoin="round"/>
</svg>